# xmcd CD database file
#
# Track frame offsets:
#	150
#	17150
#	21665
#	48307
#	63932
#	85102
#	100780
#	121467
#	141465
#	167752
#
# Disc length: 2546 seconds
#
# Revision: 3
# Processed by: cddbd v1.5.2PL0 Copyright (c) Steve Scherf et al.
# Submitted via: CDex 1.70beta3
#
DISCID=8609f00a
DTITLE=マウンテン - ナンタケット・スレイライド
DYEAR=1971
DGENRE=Hard Rock
TTITLE0=ドント・ルック・アラウンド
TTITLE1=タウンタ
TTITLE2=ナンタケット・スレイライド
TTITLE3=君は俺のもの
TTITLE4=タイアード・エンジェルス
TTITLE5=アニマル・トレーナー
TTITLE6=マイ・レディ
TTITLE7=暗黒への旅路
TTITLE8=偉大なる列車強盗
TTITLE9=暗黒への旅路
EXTD=YEAR: 1971
EXTT0=
EXTT1=
EXTT2=
EXTT3=
EXTT4=
EXTT5=
EXTT6=
EXTT7=
EXTT8=
EXTT9=BONUS LIVE TRACK
PLAYORDER=
